<?xml version="1.0" encoding="UTF-8" ?>
<!DOCTYPE svg PUBLIC "-//W3C//DTD SVG 1.1//EN" "http://www.w3.org/Graphics/SVG/1.1/DTD/svg11.dtd">
<svg width="135pt" height="150pt" viewBox="0 0 135 150" version="1.1" xmlns="http://www.w3.org/2000/svg">
<g id="#4e88cbff">
</g>
<g id="#3b7bc5ff">
</g>
<g id="#548cccff">
</g>
<g id="#3f2715ff">
<path fill="#3f2715" opacity="1.00" d=" M 46.63 11.27 C 46.31 8.48 46.13 5.65 46.58 2.86 C 50.40 3.07 54.24 3.18 58.05 3.62 C 60.44 3.94 62.83 4.29 65.23 4.57 C 72.10 5.56 79.08 6.63 85.56 9.28 C 85.02 7.78 84.58 6.26 84.21 4.72 C 87.63 5.32 90.55 7.23 92.75 9.87 C 94.50 8.29 96.59 7.22 98.97 7.06 C 98.78 9.10 98.07 11.02 97.13 12.82 C 103.82 19.02 106.45 28.29 106.83 37.15 C 107.29 41.62 107.55 46.18 106.60 50.61 C 106.28 50.54 105.62 50.41 105.30 50.35 C 104.92 48.19 104.52 46.03 104.21 43.86 C 103.45 29.12 91.79 15.65 76.98 13.80 C 69.49 13.34 61.57 12.74 54.50 15.76 C 44.11 19.84 36.37 29.82 34.83 40.86 C 34.50 43.96 34.17 47.11 32.83 49.98 C 32.25 42.61 31.84 35.04 33.66 27.81 C 34.61 24.30 36.52 21.17 37.80 17.80 C 37.92 16.11 37.39 14.46 37.12 12.82 C 40.12 11.50 43.39 11.26 46.63 11.27 Z" />
<path fill="#3f2715" opacity="1.00" d=" M 41.54 29.59 C 46.54 21.07 56.28 15.95 66.05 15.76 C 73.48 15.40 81.37 15.97 87.76 20.18 C 97.52 25.66 102.21 37.23 102.06 48.07 C 100.09 51.57 100.76 55.71 99.94 59.52 C 98.31 50.89 96.50 42.16 92.75 34.16 C 92.23 32.49 90.61 31.97 89.03 31.86 C 85.17 31.10 81.77 33.67 78.03 34.05 C 72.40 34.69 66.68 34.53 61.06 33.88 C 56.97 33.44 53.13 31.13 48.94 31.79 C 47.59 32.42 46.42 33.37 45.81 34.75 C 42.90 40.25 41.06 46.27 39.87 52.35 C 38.54 50.39 37.22 48.37 36.57 46.05 C 36.93 40.27 38.27 34.45 41.54 29.59 Z" />
</g>
<g id="#8b8f95ff">
<path fill="#8b8f95" opacity="1.00" d=" M 54.50 15.76 C 61.57 12.74 69.49 13.34 76.98 13.80 C 91.79 15.65 103.45 29.12 104.21 43.86 C 104.28 45.60 104.29 47.35 104.31 49.10 C 103.75 48.84 102.62 48.32 102.06 48.07 C 102.21 37.23 97.52 25.66 87.76 20.18 C 81.37 15.97 73.48 15.40 66.05 15.76 C 56.28 15.95 46.54 21.07 41.54 29.59 C 38.27 34.45 36.93 40.27 36.57 46.05 C 36.41 47.49 35.86 48.85 34.82 49.90 C 34.55 46.90 34.50 43.86 34.83 40.86 C 36.37 29.82 44.11 19.84 54.50 15.76 Z" />
</g>
<g id="#201009ff">
<path fill="#201009" opacity="1.00" d=" M 48.94 31.79 C 53.13 31.13 56.97 33.44 61.06 33.88 C 66.68 34.53 72.40 34.69 78.03 34.05 C 81.77 33.67 85.17 31.10 89.03 31.86 C 79.35 37.54 67.63 36.88 57.02 34.78 C 54.20 34.19 51.55 33.01 48.94 31.79 Z" />
<path fill="#201009" opacity="1.00" d=" M 75.71 49.15 C 76.98 46.86 79.90 47.80 82.04 47.47 C 85.96 47.22 91.00 47.64 92.82 51.75 C 88.90 51.04 84.98 50.11 80.98 50.74 C 79.17 50.60 76.13 51.75 75.71 49.15 Z" />
</g>
<g id="#f5c098ff">
<path fill="#f5c098" opacity="1.00" d=" M 45.81 34.75 C 46.42 33.37 47.59 32.42 48.94 31.79 C 51.55 33.01 54.20 34.19 57.02 34.78 C 67.63 36.88 79.35 37.54 89.03 31.86 C 90.61 31.97 92.23 32.49 92.75 34.16 C 96.50 42.16 98.31 50.89 99.94 59.52 C 99.28 64.51 98.96 69.53 98.39 74.52 C 97.10 79.34 96.02 84.29 93.77 88.77 C 91.07 93.88 85.00 95.25 80.66 98.52 C 77.70 100.28 74.48 101.79 71.02 102.18 C 66.56 102.52 62.42 100.40 58.79 98.03 C 54.73 95.54 50.16 93.80 46.86 90.21 C 49.63 91.35 52.41 92.46 55.16 93.67 C 55.81 92.13 56.47 90.60 57.13 89.06 C 53.25 87.42 49.57 84.97 45.28 84.64 C 45.05 84.61 44.60 84.55 44.38 84.52 C 43.31 81.20 42.14 77.90 41.34 74.49 C 40.84 67.12 39.17 59.75 39.87 52.35 C 41.06 46.27 42.90 40.25 45.81 34.75 M 50.57 48.53 C 48.50 48.86 47.15 50.68 46.18 52.38 C 48.79 51.88 51.33 50.96 54.00 50.84 C 56.79 51.16 59.59 51.54 62.41 51.51 C 62.51 50.52 62.63 49.54 62.77 48.56 C 58.72 48.26 54.61 47.91 50.57 48.53 M 75.71 49.15 C 76.13 51.75 79.17 50.60 80.98 50.74 C 84.98 50.11 88.90 51.04 92.82 51.75 C 91.00 47.64 85.96 47.22 82.04 47.47 C 79.90 47.80 76.98 46.86 75.71 49.15 M 53.96 65.43 C 57.06 66.06 57.89 62.35 58.63 60.21 C 57.84 60.28 56.26 60.42 55.47 60.49 C 55.43 60.19 55.35 59.60 55.30 59.30 C 56.13 59.41 57.79 59.64 58.62 59.75 C 57.32 58.47 56.23 55.78 53.92 56.53 C 50.48 58.24 50.60 63.69 53.96 65.43 M 80.22 61.65 L 80.78 61.44 C 81.14 63.53 83.43 66.95 85.76 64.81 C 89.51 62.20 86.79 54.39 81.97 56.99 C 81.18 58.46 80.55 60.00 80.22 61.65 M 69.06 65.92 C 69.44 68.93 71.68 71.12 73.08 73.69 C 71.19 76.45 68.22 75.54 65.71 74.31 C 66.90 78.80 73.84 78.16 74.69 73.78 C 74.02 70.53 71.39 68.11 69.06 65.92 M 58.95 83.42 C 58.69 83.29 58.15 83.02 57.88 82.89 C 58.80 85.83 61.42 87.68 63.33 89.95 C 66.77 93.46 72.83 93.66 76.59 90.56 C 78.56 87.64 82.01 85.60 82.91 82.07 C 82.62 82.21 82.05 82.50 81.76 82.64 C 74.30 84.65 66.55 83.63 58.95 83.42 Z" />
</g>
<g id="#525454ff">
<path fill="#525454" opacity="1.00" d=" M 32.83 49.98 C 34.17 47.11 34.50 43.96 34.83 40.86 C 34.50 43.86 34.55 46.90 34.82 49.90 C 35.86 48.85 36.41 47.49 36.57 46.05 C 37.22 48.37 38.54 50.39 39.87 52.35 C 39.17 59.75 40.84 67.12 41.34 74.49 C 40.51 74.70 38.84 75.10 38.00 75.30 C 37.31 74.66 36.60 74.03 35.89 73.42 C 35.82 67.58 35.09 61.78 34.59 55.96 C 34.52 54.23 33.91 52.61 33.21 51.05 C 33.11 50.78 32.92 50.25 32.83 49.98 Z" />
</g>
<g id="#545555ff">
<path fill="#545555" opacity="1.00" d=" M 104.21 43.86 C 104.52 46.03 104.92 48.19 105.30 50.35 C 105.62 50.41 106.28 50.54 106.60 50.61 C 106.56 50.75 106.47 51.04 106.42 51.18 C 104.10 58.47 104.49 66.33 103.60 73.88 C 102.99 74.32 102.39 74.76 101.80 75.23 C 100.95 75.05 99.25 74.70 98.39 74.52 C 98.96 69.53 99.28 64.51 99.94 59.52 C 100.76 55.71 100.09 51.57 102.06 48.07 C 102.62 48.32 103.75 48.84 104.31 49.10 C 104.29 47.35 104.28 45.60 104.21 43.86 Z" />
<path fill="#545555" opacity="1.00" d=" M 45.28 84.64 C 49.57 84.97 53.25 87.42 57.13 89.06 C 56.47 90.60 55.81 92.13 55.16 93.67 C 52.41 92.46 49.63 91.35 46.86 90.21 C 45.85 89.38 44.84 88.55 43.82 87.74 C 44.18 86.96 44.91 85.41 45.28 84.64 Z" />
</g>
<g id="#4481c8ff">
</g>
<g id="#080000ff">
<path fill="#080000" opacity="1.00" d=" M 50.57 48.53 C 54.61 47.91 58.72 48.26 62.77 48.56 C 62.63 49.54 62.51 50.52 62.41 51.51 C 59.59 51.54 56.79 51.16 54.00 50.84 C 51.33 50.96 48.79 51.88 46.18 52.38 C 47.15 50.68 48.50 48.86 50.57 48.53 Z" />
</g>
<g id="#8d8e8dff">
<path fill="#8d8e8d" opacity="1.00" d=" M 28.45 56.30 C 29.40 54.08 31.52 52.68 33.21 51.05 C 33.91 52.61 34.52 54.23 34.59 55.96 C 35.09 61.78 35.82 67.58 35.89 73.42 C 35.34 73.41 34.26 73.39 33.72 73.38 C 35.89 78.10 39.23 82.82 44.38 84.52 C 44.60 84.55 45.05 84.61 45.28 84.64 C 44.91 85.41 44.18 86.96 43.82 87.74 C 40.43 84.97 36.26 82.91 34.04 78.95 C 30.27 72.06 26.78 64.35 28.45 56.30 Z" />
<path fill="#8d8e8d" opacity="1.00" d=" M 103.60 73.88 C 104.49 66.33 104.10 58.47 106.42 51.18 C 108.56 53.00 111.52 54.79 111.63 57.94 C 111.73 61.73 111.73 65.72 110.27 69.29 C 109.06 71.97 106.01 72.71 103.60 73.88 Z" />
</g>
<g id="#3d2514ff">
<path fill="#3d2514" opacity="1.00" d=" M 53.96 65.43 C 50.60 63.69 50.48 58.24 53.92 56.53 C 56.23 55.78 57.32 58.47 58.62 59.75 C 57.79 59.64 56.13 59.41 55.30 59.30 C 55.35 59.60 55.43 60.19 55.47 60.49 C 56.26 60.42 57.84 60.28 58.63 60.21 C 57.89 62.35 57.06 66.06 53.96 65.43 Z" />
</g>
<g id="#896a54ff">
<path fill="#896a54" opacity="1.00" d=" M 80.22 61.65 C 80.55 60.00 81.18 58.46 81.97 56.99 C 82.73 58.03 83.49 59.07 84.26 60.10 C 83.10 60.55 81.94 61.00 80.78 61.44 L 80.22 61.65 Z" />
</g>
<g id="#351f0dff">
<path fill="#351f0d" opacity="1.00" d=" M 81.97 56.99 C 86.79 54.39 89.51 62.20 85.76 64.81 C 83.43 66.95 81.14 63.53 80.78 61.44 C 81.94 61.00 83.10 60.55 84.26 60.10 C 83.49 59.07 82.73 58.03 81.97 56.99 Z" />
<path fill="#351f0d" opacity="1.00" d=" M 81.76 82.64 C 82.05 82.50 82.62 82.21 82.91 82.07 C 82.01 85.60 78.56 87.64 76.59 90.56 C 72.55 88.17 67.54 87.66 63.33 89.95 C 61.42 87.68 58.80 85.83 57.88 82.89 C 58.15 83.02 58.69 83.29 58.95 83.42 C 60.24 84.51 61.27 86.30 63.15 86.34 C 67.81 86.73 72.52 86.80 77.17 86.31 C 79.48 86.38 80.47 84.12 81.76 82.64 Z" />
</g>
<g id="#e4a67bff">
<path fill="#e4a67b" opacity="1.00" d=" M 69.06 65.92 C 71.39 68.11 74.02 70.53 74.69 73.78 C 73.84 78.16 66.90 78.80 65.71 74.31 C 68.22 75.54 71.19 76.45 73.08 73.69 C 71.68 71.12 69.44 68.93 69.06 65.92 Z" />
</g>
<g id="#ffffffff">
<path fill="#ffffff" opacity="1.00" d=" M 58.95 83.42 C 66.55 83.63 74.30 84.65 81.76 82.64 C 80.47 84.12 79.48 86.38 77.17 86.31 C 72.52 86.80 67.81 86.73 63.15 86.34 C 61.27 86.30 60.24 84.51 58.95 83.42 Z" />
<path fill="#ffffff" opacity="1.00" d=" M 53.23 101.54 C 55.05 101.41 56.87 101.28 58.70 101.15 C 58.66 102.44 58.62 103.73 58.59 105.02 C 62.00 107.67 65.74 109.88 68.98 112.76 C 66.94 114.79 64.93 116.87 63.13 119.12 C 61.60 121.26 59.76 123.16 57.54 124.59 C 56.28 118.82 53.01 113.66 52.36 107.73 C 52.43 105.64 52.77 103.58 53.23 101.54 Z" />
<path fill="#ffffff" opacity="1.00" d=" M 81.20 101.06 C 82.66 101.24 84.11 101.42 85.57 101.61 C 85.69 103.63 85.81 105.66 85.84 107.69 C 85.76 113.27 82.38 117.98 81.17 123.28 C 80.24 123.37 79.32 123.46 78.39 123.55 C 77.33 122.16 76.30 120.76 75.23 119.38 C 73.34 117.01 71.33 114.73 69.28 112.50 C 73.25 109.59 77.45 107.02 81.40 104.09 C 81.35 103.33 81.25 101.81 81.20 101.06 Z" />
</g>
<g id="#c05b5dff">
<path fill="#c05b5d" opacity="1.00" d=" M 63.33 89.95 C 67.54 87.66 72.55 88.17 76.59 90.56 C 72.83 93.66 66.77 93.46 63.33 89.95 Z" />
</g>
<g id="#ecad81ff">
<path fill="#ecad81" opacity="1.00" d=" M 58.79 98.03 C 62.42 100.40 66.56 102.52 71.02 102.18 C 74.48 101.79 77.70 100.28 80.66 98.52 C 80.80 99.16 81.07 100.42 81.20 101.06 C 81.25 101.81 81.35 103.33 81.40 104.09 C 77.45 107.02 73.25 109.59 69.28 112.50 C 69.21 112.57 69.06 112.70 68.98 112.76 C 65.74 109.88 62.00 107.67 58.59 105.02 C 58.62 103.73 58.66 102.44 58.70 101.15 C 58.72 100.37 58.77 98.81 58.79 98.03 Z" />
</g>
<g id="#6b6c6cff">
<path fill="#6b6c6c" opacity="1.00" d=" M 43.76 108.60 C 46.62 108.23 49.49 108.02 52.36 107.73 C 53.01 113.66 56.28 118.82 57.54 124.59 C 59.05 131.41 61.24 138.07 63.18 144.78 C 63.62 146.52 64.10 148.26 64.57 150.00 L 52.24 150.00 C 51.36 147.46 50.70 144.85 50.10 142.24 C 51.83 140.28 53.68 138.42 55.63 136.66 C 53.23 136.26 50.83 135.92 48.42 135.60 C 46.09 126.74 45.62 117.54 43.76 108.60 Z" />
<path fill="#6b6c6c" opacity="1.00" d=" M 85.84 107.69 C 88.72 107.95 91.61 108.17 94.47 108.55 C 93.39 117.22 92.26 125.91 90.43 134.46 C 88.07 135.11 85.68 135.68 83.41 136.57 C 83.37 138.84 86.99 139.59 88.49 141.08 C 88.00 144.08 87.46 147.07 86.62 150.00 L 73.50 150.00 C 74.33 147.66 75.06 145.28 75.72 142.89 C 77.53 136.35 79.61 129.89 81.17 123.28 C 82.38 117.98 85.76 113.27 85.84 107.69 Z" />
</g>
<g id="#333333ff">
<path fill="#333333" opacity="1.00" d=" M 25.80 126.80 C 27.46 117.78 35.06 110.82 43.76 108.60 C 45.62 117.54 46.09 126.74 48.42 135.60 C 50.83 135.92 53.23 136.26 55.63 136.66 C 53.68 138.42 51.83 140.28 50.10 142.24 C 50.70 144.85 51.36 147.46 52.24 150.00 L 23.41 150.00 C 24.33 142.28 24.81 134.51 25.80 126.80 Z" />
<path fill="#333333" opacity="1.00" d=" M 94.47 108.55 C 103.23 110.10 110.62 117.14 112.29 125.92 C 113.21 133.93 113.87 141.97 114.67 150.00 L 86.62 150.00 C 87.46 147.07 88.00 144.08 88.49 141.08 C 86.99 139.59 83.37 138.84 83.41 136.57 C 85.68 135.68 88.07 135.11 90.43 134.46 C 92.26 125.91 93.39 117.22 94.47 108.55 Z" />
</g>
<g id="#ad2229ff">
<path fill="#ad2229" opacity="1.00" d=" M 68.98 112.76 C 69.06 112.70 69.21 112.57 69.28 112.50 C 71.33 114.73 73.34 117.01 75.23 119.38 C 74.39 120.65 73.56 121.93 72.77 123.24 C 70.52 123.43 68.26 123.49 66.00 123.39 C 65.26 121.83 64.17 120.48 63.13 119.12 C 64.93 116.87 66.94 114.79 68.98 112.76 Z" />
</g>
<g id="#d6d4d9ff">
<path fill="#d6d4d9" opacity="1.00" d=" M 75.23 119.38 C 76.30 120.76 77.33 122.16 78.39 123.55 C 79.32 123.46 80.24 123.37 81.17 123.28 C 79.61 129.89 77.53 136.35 75.72 142.89 C 74.82 136.33 74.30 129.69 72.77 123.24 C 73.56 121.93 74.39 120.65 75.23 119.38 Z" />
</g>
<g id="#d7d6dbff">
<path fill="#d7d6db" opacity="1.00" d=" M 57.54 124.59 C 59.76 123.16 61.60 121.26 63.13 119.12 C 64.17 120.48 65.26 121.83 66.00 123.39 C 64.68 130.47 63.76 137.61 63.18 144.78 C 61.24 138.07 59.05 131.41 57.54 124.59 Z" />
</g>
<g id="#8f1a24ff">
<path fill="#8f1a24" opacity="1.00" d=" M 66.00 123.39 C 68.26 123.49 70.52 123.43 72.77 123.24 C 74.30 129.69 74.82 136.33 75.72 142.89 C 75.06 145.28 74.33 147.66 73.50 150.00 L 64.57 150.00 C 64.10 148.26 63.62 146.52 63.18 144.78 C 63.76 137.61 64.68 130.47 66.00 123.39 Z" />
</g>
</svg>
